<?xml version="1.0" encoding="UTF-8"?>
<svg width="500" height="500" viewBox="0 0 500 500" fill="none" xmlns="http://www.w3.org/2000/svg">
  <path d="M250 50C161.929 50 90 121.929 90 210C90 298.071 161.929 370 250 370C338.071 370 410 298.071 410 210C410 121.929 338.071 50 250 50Z" fill="#4CAF50"/>
  <path d="M250 90C183.726 90 130 143.726 130 210C130 276.274 183.726 330 250 330C316.274 330 370 276.274 370 210C370 143.726 316.274 90 250 90Z" fill="white"/>
  <path d="M250 130C205.817 130 170 165.817 170 210C170 254.183 205.817 290 250 290C294.183 290 330 254.183 330 210C330 165.817 294.183 130 250 130Z" fill="#FF9800"/>
  <path d="M280 180C280 166.193 268.807 155 255 155C241.193 155 230 166.193 230 180C230 193.807 241.193 205 255 205C268.807 205 280 193.807 280 180Z" fill="#673AB7"/>
</svg> 